<svg xmlns="http://www.w3.org/2000/svg" width="262" height="259" fill="none"><path fill="#1C1917" d="M42.108 59.276c0-2.406-2.407-4.573-4.541-5.23-.974-.314-.58-1.86.423-1.546 2.813.9 5.713 3.655 5.713 6.8a.802.802 0 0 1-.797.733.8.8 0 0 1-.798-.734v-.023zm87.082 33.851a11.03 11.03 0 0 1 1.16-1.162c.156-.128.33-.227.487-.343a5.357 5.357 0 0 1 1.821-.947 2.2 2.2 0 0 1 .87 0 7.75 7.75 0 0 1 1.015.39c.116.028.261-.163.301-.425a.677.677 0 0 0-.319-.738 3.027 3.027 0 0 0-1.554-.285 3.6 3.6 0 0 0-1.415.43c-.505.273-1.027.5-1.491.814a11.3 11.3 0 0 0-1.403 1.162 24.07 24.07 0 0 0-.771.785c-.389.4-.737.83-1.102 1.243-.279.32-.615.581-.888.93a1.708 1.708 0 0 0-.18.221c-.179.308-.162.465 0 .663.04.045.083.088.128.127a.469.469 0 0 0 .58-.046 8.073 8.073 0 0 0 1.607-1.54c.365-.419.724-.849 1.113-1.244l.041-.035zm14.418 23.932a8.453 8.453 0 0 0-.157-1.471 3.356 3.356 0 0 0-.754-1.557 2.62 2.62 0 0 0-1.113-.755 4.251 4.251 0 0 0-1.021-.146h-.824l-1.682-.093a33.081 33.081 0 0 1-1.496-.151 5.2 5.2 0 0 0-1.966 0c-.22.058-.145.361.029.663a1.227 1.227 0 0 0 .789.645c1.259.188 2.531.289 3.804.302.404.002.807.029 1.207.081.298.025.589.106.858.239.251.139.444.364.545.633.139.351.221.722.244 1.098a15.79 15.79 0 0 1 0 1.569c0 .814-.047 1.657 0 2.511a4.952 4.952 0 0 0 .377 2.075c.07.156.157.304.261.441.423.5.702.506.986.273.069-.047.133-.102.191-.162a.69.69 0 0 0 0-.767 3.77 3.77 0 0 1-.307-1.221 10.521 10.521 0 0 1-.053-1.517c0-.813.082-1.691.087-2.632l-.005-.058zm71.864 139.682c-1.49.047-2.992 0-4.489 0-.58 0-1.09-.093-1.641-.11-1.925-.082-3.857-.198-5.8-.407-.423-.052-.846-.11-1.241-.186a5.51 5.51 0 0 1-1.119-.407 15.063 15.063 0 0 1-2.564-1.743c-.232-.209-.382-.087-.382.296.007.289.073.573.193.835.119.263.29.499.503.694.454.419.966.771 1.519 1.046a6.398 6.398 0 0 0 1.804.616c1.136.185 2.283.293 3.433.325 1.363.047 2.767.25 4.159.325 1.525.093 3.062.117 4.593.134.94 0 1.885 0 2.83-.046.714 0 1.427-.058 2.14-.105.714-.046 1.427-.11 2.135-.163a22.905 22.905 0 0 0 3.282-.366c.244-.046.482-.075.719-.133.882-.274 1.16-.442 1.224-.785.027-.075.047-.153.058-.232 0-.239-.406-.326-1.032-.25-.464.075-.946.098-1.427.128l-.725.058h-.731c-.968.116-1.966.18-2.963.261-1.491.087-2.993.174-4.501.169l.023.046zm29.341-10.437a56.752 56.752 0 0 1-1.618 2.847c-.209.338-.458.651-.667.983a32.538 32.538 0 0 1-2.378 3.434 7.052 7.052 0 0 1-1.293 1.232 3.043 3.043 0 0 1-1.607.785c-.133 0-.377.168-.301.581a.889.889 0 0 0 .481.581 1.389 1.389 0 0 0 .969.116 4.803 4.803 0 0 0 1.403-.639c.354-.286.688-.597.998-.93a13.32 13.32 0 0 0 1.537-2.08c.533-.872 1.206-1.674 1.739-2.546.534-.871 1.16-1.923 1.74-2.905l.992-1.819c.499-.919.957-1.86 1.456-2.767.388-.709.823-1.377 1.212-2.08.094-.148.175-.304.244-.465.255-.61.232-.854 0-1.116a1.786 1.786 0 0 0-.174-.174c-.203-.157-.517 0-.818.372a16.493 16.493 0 0 0-1.236 1.778c-.4.61-.748 1.261-1.101 1.906-.534.959-1.05 1.935-1.601 2.906h.023zm-137.986 4.242c-.128-.075 6.838-3.789 12.823-9.542 3.578-3.435 7.464-6.892 9.825-9.298.759-.773 15.137 12.895 35.813 21.333 1.38.581-1.914 1.471-2.825 1.523-.91.052-17.584.18-32.391-.75-11.802-.732-22.526-2.801-23.245-3.266zm82.597-15.638c2.645 1.592 7.267 5.341 12.18 8.049 4.912 2.708 12.336 7.554 14.076 5.619.91-1.017 6.228-5.364 8.334-12.064 0 0-24.168-.692-28.355-1.842-2.505-.698-7.168-.326-6.235.238z"/><path fill="#1C1917" d="M71.245 222.774s-5.359 2.719-10.7 1.743c0 0 4.744 20.369 14.261 26.099 9.518 5.73 21.529 6.828 40.877-8.95l14.389-13.424s3.682 2.499 9.772 6.654c11.495 7.834 31.382 19.898 36.121 20.514 3.875.403 7.781.403 11.657 0 7.429-.819 15.92-3.254 18.866-6.572 0 0-65.728-42.423-70.298-44.841-4.57-2.418-11.506-5.195-17.468-2.325-5.963 2.871-32.05 21.45-39.775 21.293-7.725-.157-4.355 1.593-7.725-.162M44.359 87.002c.133.035.62 3.76 2.696 6.666 2.077 2.906.737 9.525-6.762 6.857 0 0-3.126-4.84-7.279-2.255-4.152 2.587-.87 7.555 1.468 9.299 2.337 1.743 8.659 3.434 11.71 1.743 0 0 3.427 8.392-4.142 10.461-7.568 2.068-13.235-9.113-14.98-12.971 0 0-12.493-2.389-19.72-11.623 0 0-7.829-10.897-2.806-21.316 10.503-21.787 34.92-17.556 40.163-12.42-.685-.54 3.885-19.45 12.921-23.733 4.82-2.284 13.832-2.586 17.718 4.65 3.718 6.88 1.2 18.334-9.65 22.815-3.99 1.32-8.057 2.39-12.18 3.202-4.402.83-10.294 8.09-9.169 15.18 1.125 7.089.012 3.445.012 3.445z"/><path fill="#1C1917" d="M44.734 90.867c.372 1.057.772 2.022 1.108 2.987a14.6 14.6 0 0 1 .76 2.824c.153.81.05 1.647-.296 2.395-.04.082-.087.162-.139.238l-.174.209c-.123.149-.265.28-.423.39a2.782 2.782 0 0 1-.522.336 2.465 2.465 0 0 1-.551.245 2.903 2.903 0 0 1-1.7.029 8.095 8.095 0 0 1-1.85-.82 30.622 30.622 0 0 0-3.694-1.999l-.54-.197-.58-.146a4.351 4.351 0 0 0-1.24-.122 4.46 4.46 0 0 0-2.39.79 4.132 4.132 0 0 0-1.531 2.011 4.99 4.99 0 0 0-.255 2.406 7.735 7.735 0 0 0 2.1 3.952c.428.471.886.906 1.35 1.325.238.203.493.407.737.581s.522.372.777.581a12.802 12.802 0 0 0 3.48 1.622 10.94 10.94 0 0 0 4.907.354 8.922 8.922 0 0 0 4.477-2.069c.777-.686.284-.959-.644-.883-1.259.153-2.508.38-3.74.68a9.836 9.836 0 0 1-7.795-1.744 16.354 16.354 0 0 1-.83-.645 10.598 10.598 0 0 1-.8-.738 9.443 9.443 0 0 1-1.346-1.592 4.605 4.605 0 0 1-.719-1.703 3.22 3.22 0 0 1 .192-1.703 2.24 2.24 0 0 1 1.479-1.26 2.71 2.71 0 0 1 1.06-.076c.4.067.788.18 1.16.337.84.375 1.645.822 2.408 1.337a14.322 14.322 0 0 0 2.697 1.481 5.554 5.554 0 0 0 1.861.337 3.3 3.3 0 0 0 .487 0l.487-.081c.317-.059.626-.153.923-.279a5.966 5.966 0 0 0 1.6-.994 5.25 5.25 0 0 0 .662-.72c.186-.273.352-.558.498-.855a6.485 6.485 0 0 0 .267-3.608 18.488 18.488 0 0 0-.905-3.208c-.458-1.267-.957-2.435-1.281-3.661a27.423 27.423 0 0 1-.806-3.754 15.813 15.813 0 0 1 .173-5.701 18.826 18.826 0 0 1 2.233-5.271 13.574 13.574 0 0 1 6.432-5.58 5.42 5.42 0 0 1 .876-.307c.296-.082.58-.204.893-.262 1.125-.296 1.89-.378 2.419-.581a1.936 1.936 0 0 0 1.102-.581c.127-.118.243-.246.347-.384.122-.215-.075-.395-.545-.529a6.262 6.262 0 0 0-.916-.156 9.954 9.954 0 0 0-1.282.034 13.388 13.388 0 0 0-4.263 1.163 14.553 14.553 0 0 0-3.787 2.533 19.63 19.63 0 0 0-4.9 7.637 16.303 16.303 0 0 0-.894 6.793c.085 1.128.248 2.248.488 3.353.11.547.243 1.087.382 1.622.14.534.284 1.052.47 1.621l.046.006z"/><path fill="#1C1917" d="M.994 74.52A22.551 22.551 0 0 0 .36 85.16c.35 1.763.924 3.473 1.706 5.09a27.537 27.537 0 0 0 2.812 4.493 33.559 33.559 0 0 0 5.319 5.492 39.328 39.328 0 0 0 11.6 6.543c1.057.365 2.134.673 3.224.924l.412.099.324.082c.166.044.323.117.464.215.291.306.515.67.656 1.069a34.692 34.692 0 0 0 3.514 5.683 22.635 22.635 0 0 0 4.176 4.295c.408.309.834.592 1.276.848l.667.39.713.314c.482.201.979.366 1.485.494.255.058.522.087.777.127.26.05.524.073.789.07a7.298 7.298 0 0 0 3.961-.947 8.316 8.316 0 0 0 2.9-2.824 8.04 8.04 0 0 0 1.241-3.882 6.626 6.626 0 0 0-1.061-3.97c-.51-.691-.859-.871-.986-.726-.128.145-.099.633.04 1.267.128.811.163 1.633.105 2.452a9.203 9.203 0 0 1-.864 3.045 5.907 5.907 0 0 1-4.698 3.447c-2.024.168-4.106-.826-5.864-2.325a24.993 24.993 0 0 1-4.64-5.457 37.522 37.522 0 0 1-1.82-3.173 10.21 10.21 0 0 0-.522-.959 2.905 2.905 0 0 0-1.102-1.017 4.572 4.572 0 0 0-1.16-.389l-.888-.203a30.05 30.05 0 0 1-8.282-3.383 37.372 37.372 0 0 1-7.255-5.48 26.729 26.729 0 0 1-5.8-7.95 19.02 19.02 0 0 1-1.542-9.6 24.664 24.664 0 0 1 4.291-11.356 27.051 27.051 0 0 1 6.45-6.689 23.18 23.18 0 0 1 8.316-3.986 29.486 29.486 0 0 1 14.082-.267c.494.114.98.26 1.456.435.493.14.945.36 1.42.547.397.173.784.367 1.16.58l.505.256c.157.082.296.18.44.262.275.17.53.322.766.453.232.134.418.285.58.401a6.42 6.42 0 0 0 1.694.825c.217.07.44.121.667.151.29 0 .215-.342-.209-.993a8.225 8.225 0 0 0-.383-.547c-.15-.197-.348-.371-.58-.58-.232-.21-.44-.43-.701-.657l-.894-.645a18.288 18.288 0 0 0-6.42-2.639 27.065 27.065 0 0 0-6.988-.529c-2.348.114-4.68.458-6.96 1.029a24.514 24.514 0 0 0-6.705 2.714 29.1 29.1 0 0 0-8.084 7.009 31.386 31.386 0 0 0-2.947 4.48 29.417 29.417 0 0 0-2.087 4.969l.087-.018zm86.16 37.983a19.34 19.34 0 0 0-.04-6.928 34.101 34.101 0 0 0-1.857-6.52 45.02 45.02 0 0 0-1.995-4.492 74.216 74.216 0 0 0-9.697-14.104 86.553 86.553 0 0 0-5.22-5.492c-1.16-1.11-2.366-2.209-3.636-3.214a26.81 26.81 0 0 0-3.996-2.749c-.882-.505-.928-.162-.423.581.826 1.17 1.82 2.21 2.952 3.086A75.768 75.768 0 0 1 76.58 86.648a61.845 61.845 0 0 1 6.066 10.263 38.787 38.787 0 0 1 2.28 6.113c.6 2.079.915 4.229.94 6.393a13.885 13.885 0 0 1-.54 3.882 10.417 10.417 0 0 1-1.74 3.446 9.705 9.705 0 0 1-2.14 2.022 9.445 9.445 0 0 1-1.253.808 9.99 9.99 0 0 1-1.34.663 17.5 17.5 0 0 1-5.869 1.33c-1.55.077-3.103.006-4.64-.209a34.036 34.036 0 0 1-4.517-.999c-.65-.192-1.276-.425-1.932-.622-1.2-.401-1.977-.715-2.557-.86a3.936 3.936 0 0 0-1.253-.169 4.27 4.27 0 0 0-.424 0c-.162.041-.029.215.348.529.192.157.441.349.749.581.364.23.742.437 1.13.622a24.435 24.435 0 0 0 4.1 1.557 29.71 29.71 0 0 0 4.397.919c3.082.432 6.218.234 9.222-.582a15.073 15.073 0 0 0 6.2-3.486 12.139 12.139 0 0 0 3.38-6.352l-.034.006z"/><path fill="#1C1917" d="M64.024 36.071a16.41 16.41 0 0 1 6.38-.087c1.029.215 2.024.57 2.957 1.058a8.052 8.052 0 0 1 3.718 3.725c.325.699.585 1.426.777 2.173a15.932 15.932 0 0 1-.157 8.282 17.198 17.198 0 0 1-1.71 3.876 22.006 22.006 0 0 1-2.506 3.487 22.46 22.46 0 0 1-5.887 4.811 22.164 22.164 0 0 1-4.466 1.918l-1.16.314c-.39.12-.786.216-1.188.285l-1.201.25-1.218.157c-1.009.139-.881.342 0 .534.226.052.499.099.818.145.35.062.706.09 1.061.082.9.041 1.802-.043 2.68-.25.862-.2 1.712-.45 2.546-.75.417-.157.823-.337 1.23-.505l.614-.262.58-.308a21.112 21.112 0 0 0 4.42-2.952 23.054 23.054 0 0 0 3.607-3.911 21.63 21.63 0 0 0 2.644-4.65 18.888 18.888 0 0 0 1.398-6.392 14.764 14.764 0 0 0-1.079-6.538 10.037 10.037 0 0 0-2.047-3.114 9.046 9.046 0 0 0-1.438-1.198c-.255-.168-.505-.36-.772-.511l-.817-.424a5.642 5.642 0 0 0-.836-.372c-.29-.105-.58-.227-.858-.326a15.948 15.948 0 0 0-1.74-.424l-.893-.15-.905-.07c-.58-.07-1.194 0-1.798-.035a21.81 21.81 0 0 0-4.338.668c-1.41.382-2.781.898-4.094 1.54a20.408 20.408 0 0 0-5.348 3.87 29.536 29.536 0 0 0-4.094 5.114 36.023 36.023 0 0 0-4.159 9.112c-.11.355-.208.704-.301 1.058a94.4 94.4 0 0 0-.267 1.04 14.687 14.687 0 0 0-.58 2.813c-.061.457-.01.922.15 1.354.05.153.116.299.198.436.133.14.296 0 .545-.453.346-.673.646-1.368.9-2.08.249-.704.457-1.384.672-2.151l.29-1.052.319-1.04a40.054 40.054 0 0 1 1.583-4.097 29.925 29.925 0 0 1 4.739-7.456 20.595 20.595 0 0 1 4.958-4.208 19.631 19.631 0 0 1 6.073-2.324v-.012zm23.1 48.194c.115-.352.166-.722.15-1.092a2.608 2.608 0 0 0-.33-1.163 3.226 3.226 0 0 0-1.548-1.313 5.478 5.478 0 0 0-1.16-.424 11.31 11.31 0 0 0-3.927-.064c-.58.075-1.125.14-1.687.226a3.923 3.923 0 0 0-2.053.79c-.186.158 0 .442.313.698.292.28.675.444 1.078.465.621-.058 1.224-.232 1.862-.314.638-.081 1.27-.186 1.931-.267a5.823 5.823 0 0 1 2.32.314c.357.093.695.248.998.459a.843.843 0 0 1 .371.662c-.02.46-.184.901-.47 1.261a6.579 6.579 0 0 1-1.774 1.744 9.484 9.484 0 0 1-1.74.778l-.395.122c-.475.18-.58.32-.58.75v.297c0 .313.32.523.783.494a6.803 6.803 0 0 0 2.019-.471 8.504 8.504 0 0 0 1.803-1.128 6.583 6.583 0 0 0 2.123-2.772l-.087-.052zm33.841 115.414a33.013 33.013 0 0 0-9.454 4.138c-2.9 1.743-5.614 3.725-8.328 5.625-1.363.948-2.72 1.883-4.1 2.767a115.98 115.98 0 0 1-4.228 2.568 89.827 89.827 0 0 1-8.7 4.591 39.696 39.696 0 0 1-6.675 2.365c-2.188.62-4.484.755-6.728.396a7.137 7.137 0 0 1-2.587-1.076l-1.282-.877c-.423-.296-.817-.634-1.23-.947a34.839 34.839 0 0 1-4.5-4.318 51.201 51.201 0 0 1-6.96-10.461c-3.868-7.525-6.379-15.725-8.287-24.018-.847-3.69-1.531-7.427-2.157-11.17-.302-1.865-.633-3.76-.87-5.596a34.084 34.084 0 0 1-.227-5.538c.07-2.345.526-4.662 1.352-6.858a14.487 14.487 0 0 1 3.81-5.66 12.445 12.445 0 0 1 6.014-2.975 10.33 10.33 0 0 1 6.566.796l.423.215.348.215c.22.116.394.226.528.314.278.155.446.189.504.104.099-.145-.185-.901-1.23-1.784a9.162 9.162 0 0 0-5.265-1.923 12.556 12.556 0 0 0-7.917 2.196 14.843 14.843 0 0 0-3.004 2.743 17.655 17.655 0 0 0-1.206 1.627 19.308 19.308 0 0 0-.98 1.744 21.613 21.613 0 0 0-2.03 7.607 34.937 34.937 0 0 0 .214 7.712c.093.627.18 1.272.278 1.883l.349 1.865.632 3.673c1.74 9.792 4.117 19.607 8.148 28.882 2.419 5.521 5.44 10.996 9.558 15.691a36.622 36.622 0 0 0 7.006 6.271l.487.337c.163.11.366.215.58.319.373.21.76.393 1.16.547.79.289 1.612.484 2.448.581 1.61.163 3.236.089 4.825-.221a40.822 40.822 0 0 0 9.697-3.318 101.179 101.179 0 0 0 8.914-4.818c1.438-.86 2.9-1.743 4.304-2.667a160.366 160.366 0 0 0 4.164-2.86c2.749-1.917 5.469-3.847 8.328-5.491 3.48-2.011 7.319-3.604 11.292-3.72 1.983-.06 3.961.235 5.84.872a23.066 23.066 0 0 1 5.336 2.714c10.44 6.898 20.983 13.668 31.417 20.375 8.12 5.201 16.025 10.373 24.098 15.44 1.78 1.116 3.48 2.226 5.318 3.325 6.704 4.068 8.972 5.189 10.712 5.532.381.101.769.174 1.16.221.853 0-1.792-1.802-6.652-4.829-7.209-4.498-14.581-9.206-22.039-13.977L157.52 216.3a3244.625 3244.625 0 0 1-16.848-10.984l-2.094-1.383-1.049-.697a48.015 48.015 0 0 0-1.085-.698 22.468 22.468 0 0 0-4.785-2.324 18.777 18.777 0 0 0-5.289-1.052 19.621 19.621 0 0 0-5.347.488l-.058.029z"/><path fill="#1C1917" d="M74.436 192.008a184.82 184.82 0 0 0-2.07-4.353c-.256-.528-.476-1.075-.749-1.598a82.529 82.529 0 0 0-3.126-5.369c-.499-.773-.94-1.581-1.403-2.366-.296-.505-.58-1.028-.876-1.522a8.654 8.654 0 0 0-1.085-1.395c-.516-.517-1.583 1.366-.876 2.447 1.259 1.946 2.512 3.882 3.852 5.811a29.81 29.81 0 0 1 2.012 3.818 122.468 122.468 0 0 1 2.053 4.312c.406.895.812 1.796 1.195 2.702.58 1.372 1.195 2.749 1.74 4.138.406 1.081.702 2.185 1.055 3.278.076.238.14.482.226.72.337.884.58 1.105 1.16 1.081.13.009.26.009.389 0 .417-.081.58-.581.435-1.243a42.43 42.43 0 0 0-2.024-6.044c-.58-1.488-1.23-2.976-1.862-4.458l-.046.041zm44.489-2.644a29.174 29.174 0 0 0-9.86 1.656l-.864.285c-.284.099-.58.221-.846.326-.58.226-1.131.43-1.677.691-1.937.942-3.706 1.947-5.532 2.906-1.827.959-3.66 1.918-5.504 2.847-1.636.831-3.312 1.604-4.97 2.36a57.842 57.842 0 0 0-6.328 3.08c-1.253.761 1.258 1.691 3.689.546 4.314-2.04 8.606-4.149 12.823-6.538a110.992 110.992 0 0 1 3.885-2.063c.667-.354 1.317-.656 1.972-.964l.98-.465.998-.407a28.734 28.734 0 0 1 9.129-2.232c.483-.046.97-.064 1.455-.052h1.45l1.45.134c.244 0 .487.04.725.075l.719.134a27.29 27.29 0 0 1 8.335 2.905 34.41 34.41 0 0 1 5.521 3.958c.383.325.742.657 1.131.971 1.374 1.266 1.902 1.557 2.569 1.429.154-.012.305-.041.452-.087.424-.18.076-.947-.904-1.982a27.261 27.261 0 0 0-2.32-2.202 29.942 29.942 0 0 0-2.604-2.011 14.259 14.259 0 0 0-1.398-.912l-1.444-.866c-.499-.268-1.015-.506-1.52-.762a16.943 16.943 0 0 0-1.554-.703 27.592 27.592 0 0 0-9.941-2.109l-.017.052z"/><path fill="#1C1917" d="M103.782 198.662a13.957 13.957 0 0 1 1.519 2.011c.163.261.267.581.418.825a12.712 12.712 0 0 1 1.305 2.999c.119.455.158.926.116 1.395-.052.581-.267 1.063-.308 1.516 0 .146.395.483.928.581a1.4 1.4 0 0 0 .818-.093.915.915 0 0 0 .528-.581 5.679 5.679 0 0 0 .052-2.475 7.6 7.6 0 0 0-.742-2.121c-.406-.779-.656-1.633-1.073-2.401a16.817 16.817 0 0 0-1.589-2.382c-.36-.465-.754-.895-1.16-1.325a19.978 19.978 0 0 0-2.001-1.744 14.04 14.04 0 0 0-1.694-1.267 2.509 2.509 0 0 0-.423-.238c-.58-.244-.8-.116-1.026.366-.057.11-.107.222-.151.337a.863.863 0 0 0 .272.983c.824.639 1.636 1.197 2.454 1.911.62.53 1.192 1.114 1.71 1.744l.047-.041zM88.453 153.45a1.84 1.84 0 0 1-.887.424 3.62 3.62 0 0 1-.621.099l-.661.069H84.95c-.447 0-.893-.116-1.334-.226l-.957-.279-.945-.36a30.546 30.546 0 0 1-6.322-3.627c-.893-.639-1.74-1.325-2.627-1.999a19.123 19.123 0 0 0-3.51-2.423c-.4-.198-.48.064-.318.5.105.265.246.515.418.743.208.304.464.571.76.791 2.255 1.691 4.47 3.562 7.011 5.079a28.453 28.453 0 0 0 4.843 2.499c1.944.732 4.054.901 6.09.488a2.898 2.898 0 0 0 1.74-1.203 3.004 3.004 0 0 0 .336-2.092 6.466 6.466 0 0 0-1.207-2.656 44.857 44.857 0 0 0-1.705-2.162 43.711 43.711 0 0 1-2.465-3.301c-.173-.244-.307-.499-.475-.743-.58-.93-.812-1.203-1.241-1.256a1.81 1.81 0 0 0-.284-.035c-.285 0-.296.552.063 1.354a16.845 16.845 0 0 0 2.065 3.342c.8 1.04 1.647 2.022 2.401 3.034.279.366.58.767.777 1.098.216.346.389.717.517 1.104.117.333.167.687.144 1.04-.016.263-.13.509-.319.692l.047.006zm26.068-2.116a188.755 188.755 0 0 1-6.739-2.324c-.812-.308-1.607-.669-2.419-.977a644.356 644.356 0 0 1-8.6-3.329c-1.27-.5-2.518-1.064-3.77-1.61a44.452 44.452 0 0 0-4.814-1.964c-.499-.157-.679.331-.47.993a3.192 3.192 0 0 0 1.74 1.842c1.665.692 3.277 1.314 4.93 1.976a97.275 97.275 0 0 0 5.034 1.848c2.041.692 4.06 1.645 6.119 2.441 2.25.878 4.535 1.697 6.832 2.482 1.409.482 2.836.924 4.257 1.377 2.163.645 4.349 1.261 6.524 1.819 1.688.453 3.329.965 5.017 1.366.371.093.731.209 1.108.278 1.403.256 1.879.192 2.256-.29a2.58 2.58 0 0 0 .249-.331c.186-.396-.33-.826-1.316-1.104-2.9-.837-6.003-1.581-9.089-2.447a136.608 136.608 0 0 1-6.843-2.092l-.006.046zm11.559-72.206a9.523 9.523 0 0 1 .29-1.633.38.38 0 0 1 .157-.273c.058 0 .092.046.121.087l.041.075v.041c.017.032.03.065.041.099.185.581.342 1.162.481 1.743.209.878.342 1.779.505 2.674.162.894.342 1.912.487 2.87l.209 1.447.098.721.151 1.005c.019.111.054.22.104.32.039.101.083.2.134.296.184.13.401.202.626.21h1.247a7.372 7.372 0 0 1 1.775.162 2.422 2.422 0 0 1 1.484.901 2.66 2.66 0 0 1 .366 1.709 8.548 8.548 0 0 1-.667 2.481l-.516 1.232c-.169.418-.331.837-.499 1.261-.209.523.069.581.58.337.333-.181.639-.408.91-.674.18-.163.343-.345.488-.54a4.03 4.03 0 0 0 .388-.698c.427-.944.72-1.944.87-2.97a5.233 5.233 0 0 0-.058-1.743 3.609 3.609 0 0 0-.928-1.743 3.994 3.994 0 0 0-1.589-.953 6.636 6.636 0 0 0-1.618-.302h-1.444c-.076 0-.244.087-.244-.059l-.029-.098-.058-.413-.122-.86-.226-1.743a66.622 66.622 0 0 0-.533-3.487 45.972 45.972 0 0 0-.406-1.9 34.744 34.744 0 0 0-.244-.948l-.139-.476-.075-.239-.105-.308a4.071 4.071 0 0 0-.661-1.26 1.43 1.43 0 0 0-.481-.355.794.794 0 0 0-.609 0c-.2.07-.386.171-.551.302l-.232.238-.116.122-.099.151a3.095 3.095 0 0 0-.331.628l-.139.331a2.068 2.068 0 0 0-.075.268 11.702 11.702 0 0 0-.36 2.44 30.043 30.043 0 0 0-.046 2.395c.041 2.4.267 4.782.429 7.136.133 1.825.191 3.62.267 5.422 0 .395 0 .785.035 1.162.063 1.47.191 1.93.58 2.244.073.078.155.148.243.209.255.145.54-.471.58-1.587a96.944 96.944 0 0 0-.354-10.082c-.075-1.262-.15-2.517-.179-3.766a27.378 27.378 0 0 1 .098-3.679l-.052.07z"/><path fill="#1C1917" d="M131.614 126.723a509.392 509.392 0 0 0-1.333-12.965c-.18-1.575-.308-3.156-.499-4.719l-.134-1.034c-.058-.361-.11-.779-.203-1.163a15.118 15.118 0 0 0-.707-2.121c-.551-1.336-1.16-2.563-1.549-3.795a4.872 4.872 0 0 1 0-3.486 4.2 4.2 0 0 1 .186-.401l.249-.378a2.34 2.34 0 0 1 .255-.36 9.01 9.01 0 0 1 .325-.367c.453-.488.94-.97 1.439-1.43a18.406 18.406 0 0 1 2.198-1.743 6.55 6.55 0 0 1 .58-.354 2.45 2.45 0 0 1 .348-.163.766.766 0 0 1 .342-.052.32.32 0 0 1 .243.22c.11.229.131.49.058.733a6.87 6.87 0 0 1-.928 1.883c-.411.64-.87 1.29-1.299 1.987a9.285 9.285 0 0 0-1.09 2.325 4.836 4.836 0 0 0-.174 1.4c.016.494.135.979.348 1.424.082.205.221.383.4.512a.257.257 0 0 0 .307 0c.169-.128.209-.483.308-.924.099-.488.271-.959.51-1.395.255-.488.609-1.046 1.015-1.743.511-.907 1.16-1.82 1.798-2.906a7.985 7.985 0 0 0 .824-1.9c.063-.227.106-.458.127-.692a4.036 4.036 0 0 0 0-.837 3.48 3.48 0 0 0-.58-1.482 3.092 3.092 0 0 0-.481-.476c-.19-.127-.4-.22-.621-.273a2.615 2.615 0 0 0-1.38.075 4.484 4.484 0 0 0-.696.279c-.109.05-.216.106-.319.168a1.641 1.641 0 0 0-.197.117c-.267.157-.505.32-.737.482a23.806 23.806 0 0 0-2.511 2.133c-.389.378-.766.761-1.16 1.162-.185.21-.365.407-.58.657-.214.25-.354.529-.528.796a6.027 6.027 0 0 0-.812 3.655 11.68 11.68 0 0 0 .83 3.121c.377.959.789 1.866 1.16 2.76.356.844.598 1.731.719 2.639l.33 2.969c.499 4.33.975 8.665 1.375 13.001.244 2.673.47 5.346.65 8.019.261 4.068.487 8.136.469 12.152a74.192 74.192 0 0 1-.638 9.217 53.974 53.974 0 0 1-.33 1.964c-.203 1.226-.377 2.005-.435 2.574-.063.421-.008.852.156 1.244.056.164.124.323.203.477.145.203.395.098.72-.308a6.352 6.352 0 0 0 .939-2.058 41.182 41.182 0 0 0 1.247-8.618c.168-2.906.151-5.887.081-8.845-.122-4.387-.417-8.781-.76-13.157h-.058z"/><path fill="#1C1917" d="M137.982 94.58a12.97 12.97 0 0 1-.377 2.563c-.076.314-.203.616-.284.936-.145.58-.279 1.162-.418 1.743a6.581 6.581 0 0 1-.493 1.569 2.082 2.082 0 0 1-.156.256.544.544 0 0 1-.145.134.246.246 0 0 1-.172.045.25.25 0 0 1-.159-.08 8.527 8.527 0 0 1-.58-1.459c-.081-.18-.336-.116-.58.11a1.136 1.136 0 0 0-.319 1.047l.093.284c.031.114.076.223.133.326.061.132.131.26.209.383.104.122.209.25.325.366a1.335 1.335 0 0 0 1.74 0 2.9 2.9 0 0 0 .852-1.162 5.54 5.54 0 0 0 .348-1.081c.163-.808.522-1.569.76-2.388.282-.908.489-1.837.621-2.778.082-.593.115-1.192.098-1.79a5.625 5.625 0 0 0-.209-1.4 2.62 2.62 0 0 0-.817-1.32 1.856 1.856 0 0 0-.58-.337 2.957 2.957 0 0 0-.633-.15 5.275 5.275 0 0 0-.579 0c-.186 0-.383.051-.58.092-.198.04-.319.076-.476.134-.58.232-.65.447-.539.871.022.099.052.196.087.291a.671.671 0 0 0 .812.366c.431-.11.876-.16 1.322-.151.122.046.191.052.232.11.04.059.116.146.203.285.117.317.193.647.226.982.035.404.035.81 0 1.215l.035-.012z"/><path fill="#1C1917" d="M141.538 97.858c-.055.728-.177 1.45-.366 2.156-.069.261-.185.506-.266.767a10.548 10.548 0 0 1-1.085 2.627c-.04.063-.085.123-.133.18a.56.56 0 0 1-.128.11.207.207 0 0 1-.272 0 .65.65 0 0 1-.134-.348l-.069-.332c0-.122-.058-.249-.093-.377-.035-.128-.308-.151-.58 0a.913.913 0 0 0-.464.889c.043.253.115.501.214.738.106.22.254.418.435.581.178.143.394.229.621.25.228.019.457-.019.667-.111l.359-.244c.118-.092.225-.197.319-.313.047-.047.105-.128.145-.146l.082-.11c.054-.073.104-.149.15-.227.186-.291.345-.598.476-.918.278-.686.661-1.331.899-2.034.26-.773.454-1.566.58-2.371.082-.506.128-1.016.139-1.528a3.686 3.686 0 0 0-.707-2.406 2.656 2.656 0 0 0-1.949-.831 1.809 1.809 0 0 0-.435 0c-.534.075-.644.261-.58.697a2.443 2.443 0 0 0 0 .296.69.69 0 0 0 .626.582c.347.01.689.074 1.015.191.168.105.215.122.337.419a4.36 4.36 0 0 1 .121 1.825l.076-.012zm1.757 72.503a18.386 18.386 0 0 0 2.018-4.504c.471-1.539.828-3.11 1.067-4.702.466-3.137.703-6.305.708-9.478 0-2.324 0-4.608-.116-6.898a220.87 220.87 0 0 0-2.871-24.053c-.139-.878-.29-1.744-.406-2.633 0-.104 0-.209-.035-.302v-.041h-.214.214v-.151l.07-.651c.052-.441.104-.895.133-1.371a6.057 6.057 0 0 0 0-.738 3.33 3.33 0 0 0-.168-.82 2.908 2.908 0 0 0-1.032-1.29 6.954 6.954 0 0 0-2.726-1.028 23.177 23.177 0 0 0-7.006 0 27.448 27.448 0 0 0-3.422.65c-.58.152-1.119.308-1.676.494-.553.205-1.093.442-1.618.709-.673.326-.911.582-.818.709.093.128.481.093 1.09.059a47.07 47.07 0 0 0 5.928-.489 33.308 33.308 0 0 1 3.334-.377 21.995 21.995 0 0 1 3.277-.041 8.457 8.457 0 0 1 1.526.221c.433.095.843.274 1.206.529a1.037 1.037 0 0 1 .447.714 8.383 8.383 0 0 1-.064 1.511l-.087.878c0 .168-.029.279-.035.529-.006.25 0 .238 0 .337l.035.244c.087.581.185 1.162.278 1.743l.58 3.446c.387 2.294.756 4.597 1.108 6.91a147.214 147.214 0 0 1 1.496 17.033 88.413 88.413 0 0 1-.18 9.38 38.306 38.306 0 0 1-1.682 9.135 14.14 14.14 0 0 1-2.667 4.876 7.663 7.663 0 0 1-2.123 1.674 9.945 9.945 0 0 1-2.61.837c-1.41.233-2.844.29-4.268.168a34.821 34.821 0 0 1-4.304-.581 64.25 64.25 0 0 1-8.375-2.383c-4.257-1.493-8.305-3.306-12.382-5.143l-2.685-1.208c-3.387-1.471-4.588-1.744-5.47-1.604a5.138 5.138 0 0 0-.58.069c-.202.07.041.262.615.611.88.509 1.787.972 2.715 1.388 7.226 3.359 14.951 6.974 23.297 9.165 1.559.408 3.139.73 4.733.965 1.622.254 3.265.353 4.906.296a12.655 12.655 0 0 0 4.988-1.162 9.104 9.104 0 0 0 2.175-1.529 12.097 12.097 0 0 0 1.641-2.004l.035-.099zm-42.281 10.536a55.057 55.057 0 0 1-.899-2.981c-.093-.367-.122-.744-.215-1.105a28.116 28.116 0 0 1-.736-3.899 9.185 9.185 0 0 1 .029-1.743c.052-.367.127-.733.168-1.093.08-.362.1-.735.058-1.104-.029-.238-.545-.32-1.073-.209-.528.11-1.073.43-1.16.912a12.48 12.48 0 0 0 .308 4.975c.26.958.319 1.97.539 2.94.232 1.064.545 2.104.847 3.138l.58 1.895c.29.953.626 1.894.864 2.847.161.74.277 1.49.348 2.244 0 .168 0 .331.058.494.104.581.278.749.835.767h.377a.78.78 0 0 0 .707-.843 14.538 14.538 0 0 0-.701-4.219l-.905-3.039-.029.023zm1.131 68.952a37.52 37.52 0 0 1-7.435 3.295 24.746 24.746 0 0 1-7.916 1.162 17.874 17.874 0 0 1-5.655-1.121 19.654 19.654 0 0 1-4.535-2.377 25.481 25.481 0 0 1-3.904-3.446 39.503 39.503 0 0 1-6.002-8.717 57.707 57.707 0 0 1-3.63-8.758c-1.265-3.847-2.153-7.811-3.162-11.733-.313-1.227-.794-.965-1.078.191a12.273 12.273 0 0 0 .237 5.544 75.729 75.729 0 0 0 4.06 12.053 46.224 46.224 0 0 0 6.635 10.978 33.524 33.524 0 0 0 5.713 5.451 20.854 20.854 0 0 0 7.29 3.4c2.881.623 5.857.672 8.757.145a33.46 33.46 0 0 0 8.236-2.65 55.591 55.591 0 0 0 9.071-5.387 125.833 125.833 0 0 0 12.156-10.193c2.987-2.761 5.91-5.486 8.873-8.136l1.972-1.744c2.477-2.121 3.225-2.684 3.555-3.486.097-.187.176-.381.238-.582.052-.261-.249-.313-.893-.139-.388.13-.765.294-1.125.488-.484.273-.951.576-1.398.907a101.073 101.073 0 0 0-8.375 7.305c-2.72 2.557-5.457 5.143-8.287 7.624-4.199 3.673-8.595 7.16-13.415 9.879l.017.047z"/><path fill="#1C1917" d="M174.92 254.074a451.47 451.47 0 0 1-11.669-6.079c-1.409-.767-2.784-1.586-4.187-2.354-4.942-2.719-9.86-5.491-14.65-8.461-2.123-1.325-4.228-2.702-6.241-4.155-.649-.459-1.299-.918-1.937-1.395l-1.908-1.441c-1.293-.93-2.529-1.924-3.851-2.813-.818-.581-1.05-.075-.702.837.24.586.562 1.134.957 1.627a8.647 8.647 0 0 0 1.81 1.784 144.768 144.768 0 0 0 16.656 10.629c3.48 1.912 6.96 4.068 10.498 6.009a378.737 378.737 0 0 0 11.744 6.265l3.654 1.86 1.003.505c.221.062.45.094.679.093l.522.029a56.248 56.248 0 0 0 8.322-.209c1.039-.075 2.071-.238 3.103-.354a34.564 34.564 0 0 0 3.074-.512 52.892 52.892 0 0 0 9.28-2.47c.666-.232 1.32-.498 1.96-.796.58-.279 1.108-.5 1.502-.732.329-.198.646-.413.951-.645.382-.256.668-.632.812-1.069.066-.161.111-.329.134-.5 0-.471-1.097-.25-2.761.546a62.007 62.007 0 0 1-7.934 2.772 63.045 63.045 0 0 1-8.508 1.592c-2.15.258-4.313.4-6.478.425-1.079 0-2.17 0-3.237-.058l-.719-.047-.336-.168-1.473-.756-.07.041z"/><path fill="#1C1917" d="m233.161 254.242.203.029c.062.006.12.03.168.07.029.122-.116.169-.232.233h-.064l-.249.081-.58.18c-.412.116-.829.221-1.253.32-.841.197-1.699.366-2.557.517-1.265.221-2.541.349-3.811.511a98.92 98.92 0 0 1-13.588.796 55.871 55.871 0 0 1-6.021-.424c-1.27-.163-2.534-.378-3.793-.581a3.817 3.817 0 0 1-1.368-.686 2.98 2.98 0 0 1-.975-1.046.471.471 0 0 0-.394-.325c-.186 0-.51.099-.667.581a2.39 2.39 0 0 0 .389 1.848 3.77 3.77 0 0 0 2.667 1.807l.505.088 1.003.151c.667.098 1.34.186 2.007.255 1.346.146 2.685.239 4.031.297 2.691.107 5.387.061 8.073-.14 3.213-.238 6.56-.372 9.86-.813 1.797-.25 3.59-.582 5.376-.977.446-.104.893-.226 1.34-.348l.701-.215.464-.163c.17-.058.333-.122.487-.192a4.036 4.036 0 0 0 1.439-.976c.181-.182.311-.409.377-.657a.963.963 0 0 0-.163-.779 2.035 2.035 0 0 0-.736-.627 2.899 2.899 0 0 0-.487-.256l-.58-.209c-.383-.134-.783-.209-1.16-.32l-.847-.157c-1.125-.186-2.239-.296-3.352-.395-1.676-.139-3.364-.203-5.017-.319l-4.993-.413c-2.581-.198-5.122-.442-7.702-.523-.58 0-1.12-.047-1.694-.041-2.128.029-2.807.238-3.213.808a2.091 2.091 0 0 0-.267.384c-.162.435.708.691 2.221.743 4.501.163 9.239.454 14.007.901 1.809.192 3.636.262 5.393.39.882.063 1.74.133 2.628.238.429.046.864.099 1.281.168l.627.111.499.099.017-.024zm-24.59-17.573 8.062.168c.98 0 1.954.105 2.899.134.865.029 1.74.052 2.564.104h.51c.07 0 .186 0 .209.07l-.046.209a1.569 1.569 0 0 1-.076.244l-.046.134v.07l-.07.139c-.18.366-.342.738-.58 1.099a25.118 25.118 0 0 1-1.316 2.15 36.196 36.196 0 0 1-2.801 3.562 76.514 76.514 0 0 1-1.996 2.104l-1.948 2.057c-.342.337-.087.796.672.854a3.598 3.598 0 0 0 2.634-1.127 45.52 45.52 0 0 0 3.955-4.69c.58-.831 1.189-1.673 1.74-2.574.272-.436.528-.895.771-1.366.122-.232.244-.471.348-.72l.168-.367.082-.18c.035-.073.066-.149.092-.226.18-.547.389-1.046.58-1.616v-.755a.911.911 0 0 0 0-.128.388.388 0 0 0-.069-.116 1.789 1.789 0 0 0-.917-.518 9.083 9.083 0 0 0-1.281-.203l-.894-.076a66.598 66.598 0 0 0-3.195-.186l-8.12-.209c-1.664-.046-3.329-.087-4.987-.163-2.512-.11-5.04-.215-7.54-.482a48.024 48.024 0 0 1-5.637-.976c-.401-.093-.789-.209-1.189-.308-1.479-.378-1.874-.442-2.396-.082a4.403 4.403 0 0 0-.359.233c-.36.273.151.988 1.322 1.435a25.967 25.967 0 0 0 5.295 1.302 58.59 58.59 0 0 0 5.452.581c2.72.215 5.446.314 8.16.424l-.052-.005z"/><path fill="#1C1917" d="M252.196 235.129c.184-1.039.237-2.098.156-3.15a6.24 6.24 0 0 0-.504-1.988 2.832 2.832 0 0 0-.122-.296l-.168-.244a1.83 1.83 0 0 0-.418-.401 1.738 1.738 0 0 0-1.096-.337 2.511 2.511 0 0 0-1.16.337 3.788 3.788 0 0 0-.534.343c-.179.122-.278.215-.423.331a12.3 12.3 0 0 0-1.085 1.128c-.655.755-1.235 1.534-1.803 2.324-.818 1.162-1.636 2.272-2.384 3.446-1.276 1.988-2.488 4.004-3.723 5.992-.621.994-1.241 1.981-1.885 2.94a25.52 25.52 0 0 1-.998 1.378l-.255.308c-.087.098-.186.197-.22.232a.385.385 0 0 1-.354.151h-.441c-2.215 0-4.361.087-6.501.111h-8.155c-.771-.029-.817.488-.127 1.086a6.065 6.065 0 0 0 3.683 1.122c1.96 0 3.891-.064 5.799-.145l2.9-.122 1.427-.053h1.972c.051-.006.101-.016.15-.029.195-.062.379-.154.546-.273.165-.118.322-.248.469-.389.14-.14.203-.215.296-.32.312-.372.604-.76.876-1.162.522-.761.997-1.523 1.461-2.29 1.74-2.906 3.683-5.875 5.591-8.717a42.305 42.305 0 0 1 3.329-4.481c.151-.162.302-.325.459-.476l.232-.221.174-.151a.741.741 0 0 1 .527-.227c.215.053.273.285.331.471.022.076.04.154.052.233l.052.279c.029.197.041.418.058.627a12.438 12.438 0 0 1-.365 3.295 27.043 27.043 0 0 1-.992 3.284 62.366 62.366 0 0 1-4.558 9.495 75.182 75.182 0 0 1-2.164 3.441l-1.125 1.644a12.856 12.856 0 0 1-1.16 1.546 5.064 5.064 0 0 1-1.16.959 1.343 1.343 0 0 1-.736.233.828.828 0 0 0-.122 0 .431.431 0 0 0-.116-.035 1.069 1.069 0 0 1-.186-.076 3.374 3.374 0 0 0-.962-.29c-.157 0-.337-.064-.482-.059-.238 0-.307.256-.174.727.036.137.095.267.174.383.085.162.191.313.313.448.16.177.344.332.546.459.121.07.249.134.382.198.149.053.303.092.459.116.236.047.479.057.719.029.226-.032.449-.082.667-.151a4.53 4.53 0 0 0 1.073-.581c.581-.426 1.1-.93 1.542-1.5.221-.267.418-.552.615-.837l.51-.767 1.044-1.586a85.017 85.017 0 0 0 3.904-6.683c.893-1.744 1.74-3.487 2.459-5.306a30.444 30.444 0 0 0 1.74-5.742l-.029-.011zm-189.471-9.647c.76-.053 1.508-.145 2.245-.262.273-.04.545 0 .812-.081.94-.198 1.856-.477 2.766-.761.406-.134.818-.215 1.236-.308a2.68 2.68 0 0 0 1.583-.669c.14-.157-.18-.581-.534-.959-.353-.377-.724-.738-.957-.656a27.1 27.1 0 0 0-2.737 1.052 6.84 6.84 0 0 1-1.85.366c-.684.11-1.375.209-2.065.261a13.26 13.26 0 0 1-1.276.047 7.215 7.215 0 0 1-1.885-.221 3.264 3.264 0 0 1-1.16-.697 1.793 1.793 0 0 0-.185-.192c-.232-.204-.354-.157-.8.162l-.308.21a.691.691 0 0 0-.209.999c.358.489.836.877 1.386 1.128a6.36 6.36 0 0 0 1.601.488c.78.12 1.567.168 2.355.145l-.018-.052zm80.478 27.586c-3.126 0-6.253-.035-9.379-.133-1.159-.029-2.273-.14-3.41-.181-4.019-.145-8.027-.348-12.034-.726a78.625 78.625 0 0 1-5.289-.703c-1.12-.186-2.239-.413-3.353-.616a14.757 14.757 0 0 0-1.74-.25 5.643 5.643 0 0 0-1.937.151c-.44.134-.58.395-.469.581.198.21.431.384.69.512a7.31 7.31 0 0 0 2.697 1.162 96.628 96.628 0 0 0 14.023 1.476c2.825.087 5.742.395 8.619.511 3.166.128 6.339.198 9.505.239h5.841c2.952 0 5.915-.07 8.844-.105 2.279 0 4.512.047 6.774 0h1.485c1.856-.081 2.441-.279 2.795-.837.09-.122.168-.252.232-.389.139-.424-.638-.715-1.983-.738-4.002-.082-8.207 0-12.435 0a431.7 431.7 0 0 1-9.453 0l-.023.046zm-86.584 1.616 5.55-.134c.673 0 1.352.035 2.024 0l7.134-.186c1.056 0 2.117 0 3.167.041a24.68 24.68 0 0 0 4.06-.052c.423-.058.365-.442 0-.831a2.688 2.688 0 0 0-1.74-.843c-1.37-.075-2.738-.163-4.107-.157a70.796 70.796 0 0 0-4.135.128c-1.659.099-3.381-.035-5.075-.052h-9.07c-1.74 0-3.48 0-5.22-.041-.673 0-1.334-.081-1.995-.145-.661-.064-1.322-.169-1.984-.157h-.875c-1.09.041-1.439.197-1.677.662-.059.1-.11.205-.15.314-.105.349.342.657 1.16.831l1.786.378a15.99 15.99 0 0 0 1.827.186 86.1 86.1 0 0 0 3.723.122c1.856.041 3.724 0 5.591 0l.006-.064z"/><path fill="#1C1917" d="m247.103 258.025 3.712-.133c.452 0 .905.035 1.357 0 1.595-.07 3.196-.186 4.791-.302.707-.047 1.427-.053 2.134-.064a8.293 8.293 0 0 0 2.738-.279c.284-.093.174-.517-.116-.924a1.637 1.637 0 0 0-1.236-.767c-1.74.046-3.567.069-5.399.273-1.12.072-2.244.072-3.364 0h-6.02c-1.16 0-2.32 0-3.48-.041-.899-.041-1.781-.209-2.691-.296-.203 0-.4-.053-.58-.058-.76 0-1.015.191-1.102.813 0 .145-.046.291-.052.43a.953.953 0 0 0 .818.953c1.582.291 3.187.435 4.796.43h3.718l-.024-.035zM84.729 99.415c-1.798 3.15-5.91 3.202-9.03 2.493-1.16-.273-.685-2.092.498-1.824 2.256.517 5.562.732 6.908-1.622.58-1.057 2.227-.104 1.624.953zM66.401 86.008a7.7 7.7 0 0 0 1.647.436 3.77 3.77 0 0 0 1.92-.174 2.628 2.628 0 0 0 1.224-.936c.266-.382.413-.835.423-1.301a3.051 3.051 0 0 0-.226-1.192 7.91 7.91 0 0 0-1.056-1.801 55.34 55.34 0 0 0-1.067-1.4 7.438 7.438 0 0 0-1.537-1.599c-.191-.133-.377.099-.446.442a1.358 1.358 0 0 0 .203 1.104 26.106 26.106 0 0 1 2.441 3.353c.177.296.266.637.255.982a.87.87 0 0 1-.098.355l-.133.192c-.053.052-.093.116-.145.162-.255.22-.581.338-.917.332a3.78 3.78 0 0 1-1.276-.21 9.97 9.97 0 0 1-1.618-.68 16.364 16.364 0 0 1-2.32-1.458c-.278-.22-.546-.456-.8-.703l-.789-.71a3.552 3.552 0 0 0-.36-.302c-.492-.325-.73-.354-1.032-.162-.064.046-.139.087-.191.133-.174.18-.128.471.116.843.371.563.8 1.085 1.282 1.557.524.452 1.076.871 1.652 1.256.892.597 1.84 1.105 2.83 1.516l.018-.035zm40.089 115.926c-.31-.621-.65-1.226-1.021-1.813-.133-.209-.238-.442-.377-.651a19.045 19.045 0 0 0-1.676-2.04c-.273-.279-.51-.581-.766-.877a4.546 4.546 0 0 0-1.061-1.029c-.139-.087-.284.105-.36.366a.924.924 0 0 0 .076.802c.58.744 1.16 1.488 1.833 2.203.383.448.716.937.991 1.458.343.552.673 1.116.963 1.697.186.361.348.727.499 1.099.242.563.436 1.147.58 1.743.075.455.11.916.104 1.377v.297c0 .372.11.482.4.581l.198.052c.22.041.4-.122.475-.43a5.88 5.88 0 0 0-.093-2.824 10.845 10.845 0 0 0-.725-1.993l-.04-.018zm-16.383-45.143a8.43 8.43 0 0 1-3.596.43 13.48 13.48 0 0 1-1.357-.186 25.9 25.9 0 0 1-4.768-1.302c-.696-.244-1.38-.528-2.064-.807a16.212 16.212 0 0 0-2.697-.948c-.296-.064-.279.047-.07.227.332.262.694.482 1.079.657a40.063 40.063 0 0 0 5.376 2.237c1.139.389 2.301.703 3.48.942 1.342.25 2.718.25 4.06 0a7.253 7.253 0 0 0 2.39-.954 3.177 3.177 0 0 0 1.16-1.662 5.112 5.112 0 0 0 .173-1.952 7.97 7.97 0 0 0-.73-2.859 4.055 4.055 0 0 0-.314-.582c-.464-.685-.777-.784-1.067-.732a.963.963 0 0 0-.191.041c-.186.087-.07.407.133.889.332.704.598 1.438.795 2.191a5.68 5.68 0 0 1 .168 2.232c-.055.479-.258.93-.58 1.29-.073.094-.16.174-.261.238a1.72 1.72 0 0 1-.33.203c-.267.117-.523.25-.801.361l.012.046z"/><path fill="#FF7C00" d="M142.424 41.493a143.548 143.548 0 0 0 4.025-3.028c.476-.377.998-.709 1.468-1.098a76.247 76.247 0 0 0 4.802-4.376 33.38 33.38 0 0 1 1.038-1.005l1.003-1.006a11.405 11.405 0 0 0 2.39-2.847c.185-.349-.273-.581-.87-.657a2.084 2.084 0 0 0-1.74.581c-1.543 1.744-3.231 3.487-4.918 5.265a31.93 31.93 0 0 1-3.48 2.871 111.647 111.647 0 0 1-3.973 3.005c-.824.61-1.67 1.162-2.517 1.743-1.288.86-2.581 1.743-3.921 2.505-1.038.58-2.122 1.07-3.189 1.58-.238.117-.476.21-.714.332-.864.447-1.067.72-.986 1.296.01.129.03.257.058.383.122.413.632.517 1.323.268a33.54 33.54 0 0 0 5.95-3.017c1.438-.871 2.836-1.83 4.24-2.777l.011-.018z"/><path fill="#1C1917" d="M79.127 154.426c1.033.43 2.082.814 3.161 1.162.389.122.777.268 1.16.366a9.653 9.653 0 0 0 4.46.192 3.178 3.178 0 0 0 1.839-1.197 3.091 3.091 0 0 0 .47-2.638c-.064-.262-.418-.163-.749.069a1.612 1.612 0 0 0-.684.93 3.05 3.05 0 0 1-.081.424c-.041.128-.093.239-.14.349-.115.202-.28.37-.481.488a4.06 4.06 0 0 1-1.896.448 9.371 9.371 0 0 1-2.79-.506 28.075 28.075 0 0 1-3.05-1.046 30.093 30.093 0 0 1-1.84-.802 27.686 27.686 0 0 1-2.679-1.435 16.888 16.888 0 0 1-1.844-1.407c-.128-.11-.244-.226-.377-.331-.481-.389-.673-.442-1.02-.25-.082.04-.162.085-.239.134-.237.168-.19.535.146.906a14.494 14.494 0 0 0 3.578 2.685c.98.581 1.995 1.046 3.022 1.511l.034-.052z"/><path fill="#FF7C00" d="M104.804 29.859c.371 4.184 1.218 8.054 3.439 11.326a27.847 27.847 0 0 1-.939-5.154C105.923 20.34 118.688 6.6 134.255 6.096a23.534 23.534 0 0 1 2.552.064 23.117 23.117 0 0 0-9.483-1.871c-3.18.122-6.302.89-9.177 2.256a23.505 23.505 0 0 0-7.549 5.695 23.593 23.593 0 0 0-5.794 17.619z"/><path fill="#FF7C00" d="M107.471 13.465a28.793 28.793 0 0 0-2.384 25.332 28.48 28.48 0 0 0 4.779 8.275 27.972 27.972 0 0 0 13.92 8.979c1.346.373 2.719.643 4.106.808.69.104 1.392.122 2.082.18.69.058 1.392.052 2.088 0a29.986 29.986 0 0 0 4.147-.395l2.047-.448c.678-.18 1.334-.413 2.001-.616a32.607 32.607 0 0 0 6.611-3.277 34.288 34.288 0 0 0 5.62-4.743 26.55 26.55 0 0 0 5.162-7.897 21.827 21.827 0 0 0 1.694-9.298c-.087-1.988-.58-1.633-1.097 0-.127.395-.226.871-.371 1.412-.145.54-.342 1.127-.504 1.772l-.122.494c-.052.163-.11.331-.168.5-.116.343-.227.697-.337 1.057-.174.739-.516 1.47-.765 2.261-2.013 5.562-6.189 10.269-11.275 13.395a25.972 25.972 0 0 1-8.259 3.336 27.21 27.21 0 0 1-9.001.314 24.819 24.819 0 0 1-10.271-3.876 26.82 26.82 0 0 1-10.695-14.015 26.881 26.881 0 0 1 .302-17.64 28.943 28.943 0 0 1 3.625-6.689 29.189 29.189 0 0 1 5.388-5.381 25.859 25.859 0 0 1 10.474-4.73 28.528 28.528 0 0 1 5.747-.535 24.36 24.36 0 0 1 5.678.872 28.31 28.31 0 0 1 8.05 3.69 26.559 26.559 0 0 1 6.432 5.91c.781.995 1.47 2.059 2.059 3.179a26.044 26.044 0 0 1 1.839 4.649c.075.261.15.5.232.709.081.209.127.407.191.581.123.302.267.595.429.878.116.238.254.466.412.68.22.232.383-.157.475-1.105a12.77 12.77 0 0 0-.58-4.288 21.51 21.51 0 0 0-4.21-7.48 28.375 28.375 0 0 0-6.554-5.666 30.837 30.837 0 0 0-8.056-3.603 27.922 27.922 0 0 0-4.401-.866 18.055 18.055 0 0 0-1.126-.099c-.377-.023-.742-.081-1.131-.081h-1.16l-1.125.07a27.513 27.513 0 0 0-12.631 4.01 29.555 29.555 0 0 0-9.431 9.298l.064.087z"/><path fill="#FF7C00" d="M148.614 35.502a151.098 151.098 0 0 0 7.539-6.451c.893-.82 1.815-1.604 2.674-2.458a58.61 58.61 0 0 0 4.344-4.765 31.394 31.394 0 0 0 1.914-2.639 14.46 14.46 0 0 0 1.513-2.987 5.555 5.555 0 0 0 .29-3.196 3.481 3.481 0 0 0-.823-1.529 6.39 6.39 0 0 0-.621-.58 6.074 6.074 0 0 0-.707-.437 5.54 5.54 0 0 0-2.03-.494 8.008 8.008 0 0 0-1.984.169 8.92 8.92 0 0 0-3.509 1.592c-.33.262-.377.506-.237.645.242.175.531.272.829.28a8.554 8.554 0 0 0 3.039-.268 5.024 5.024 0 0 1 2.784-.07c.358.109.682.31.939.581.228.248.372.561.412.895a5.544 5.544 0 0 1-.684 2.801 22.816 22.816 0 0 1-1.781 2.987c-1.641 2.325-3.862 4.44-6.02 6.486-2.378 2.255-4.871 4.41-7.423 6.497a150.76 150.76 0 0 1-4.791 3.766c-2.453 1.854-4.941 3.684-7.487 5.37-1.984 1.313-4.008 2.464-6.044 3.62l-1.345.738c-1.665.959-2.129 1.36-2.233 2.028-.037.15-.058.305-.064.46.029.453.899.383 2.204-.239a82.671 82.671 0 0 0 11.292-6.81c2.732-1.901 5.405-3.918 8.039-5.975l-.029-.017zm-39.96 21.304a15.192 15.192 0 0 0 3.915-.58c.452-.117.916-.193 1.351-.344a33.254 33.254 0 0 0 4.431-1.947c.632-.32 1.282-.61 1.926-.912a7.061 7.061 0 0 0 2.319-1.395c.203-.209-.121-.616-.579-.918a1.581 1.581 0 0 0-1.491-.261c-1.502.837-3.033 1.662-4.582 2.55a13.82 13.82 0 0 1-3.033 1.11 16.86 16.86 0 0 1-3.422.692 5.384 5.384 0 0 1-1.966-.15 1.109 1.109 0 0 1-.783-.721 2.187 2.187 0 0 1 .157-1.325 6.932 6.932 0 0 1 1.409-1.976c.122-.134.261-.25.383-.384.452-.5.499-.738.209-1.214a3.856 3.856 0 0 0-.198-.331c-.249-.338-.713-.36-1.16 0a7.926 7.926 0 0 0-1.797 1.923 5.688 5.688 0 0 0-1.021 2.952 3.144 3.144 0 0 0 .377 1.563c.271.489.672.891 1.16 1.163a5.325 5.325 0 0 0 2.383.58l.012-.075zm67.33-31.236a24.897 24.897 0 0 0-3.48 3.156.942.942 0 0 1-1.29-.044.946.946 0 0 1-.043-1.293 27.129 27.129 0 0 1 3.856-3.446c1.009-.68 1.955.953.951 1.627h.006zm-.587 12.855a9.808 9.808 0 0 0-3.074-1.372c-1.159-.302-.672-2.127.505-1.824 1.253.32 2.443.848 3.52 1.563 1.004.668.064 2.324-.951 1.633z"/></svg>